<?xml version="1.0" encoding="UTF-8"?>
<!DOCTYPE svg PUBLIC "-//W3C//DTD SVG 1.1//EN" "http://www.w3.org/Graphics/SVG/1.1/DTD/svg11.dtd">
<svg xmlns="http://www.w3.org/2000/svg" version="1.1" width="253px" height="92px" style="shape-rendering:geometricPrecision; text-rendering:geometricPrecision; image-rendering:optimizeQuality; fill-rule:evenodd; clip-rule:evenodd" xmlns:xlink="http://www.w3.org/1999/xlink">
<g><path style="opacity:1" fill="#fafbfb" d="M -0.5,-0.5 C 83.8333,-0.5 168.167,-0.5 252.5,-0.5C 252.5,30.1667 252.5,60.8333 252.5,91.5C 168.167,91.5 83.8333,91.5 -0.5,91.5C -0.5,60.8333 -0.5,30.1667 -0.5,-0.5 Z"/></g>
<g><path style="opacity:1" fill="#636f7a" d="M 163.5,15.5 C 173.653,14.5058 183.986,14.1724 194.5,14.5C 194.5,17.1667 194.5,19.8333 194.5,22.5C 190.833,22.5 187.167,22.5 183.5,22.5C 186.625,21.5206 189.958,21.1872 193.5,21.5C 193.5,19.5 193.5,17.5 193.5,15.5C 183.5,15.5 173.5,15.5 163.5,15.5 Z"/></g>
<g><path style="opacity:1" fill="#123254" d="M 102.5,49.5 C 100.052,50.4731 97.3854,50.8064 94.5,50.5C 93.4217,48.4606 92.4217,46.294 91.5,44C 85.8333,43.3333 80.1667,43.3333 74.5,44C 73.5783,46.294 72.5783,48.4606 71.5,50.5C 68.6146,50.8064 65.9479,50.4731 63.5,49.5C 68.1218,37.9561 73.1218,26.6228 78.5,15.5C 81.5,14.1667 84.5,14.1667 87.5,15.5C 93.0445,26.5894 98.0445,37.9228 102.5,49.5 Z"/></g>
<g><path style="opacity:1" fill="#647787" d="M 129.5,15.5 C 122.833,15.5 116.167,15.5 109.5,15.5C 109.5,27.1667 109.5,38.8333 109.5,50.5C 116.833,50.5 124.167,50.5 131.5,50.5C 124.018,51.492 116.352,51.8254 108.5,51.5C 108.5,39.1667 108.5,26.8333 108.5,14.5C 115.687,14.1755 122.687,14.5088 129.5,15.5 Z"/></g>
<g><path style="opacity:1" fill="#103254" d="M 33.5,28.5 C 38.5,28.5 43.5,28.5 48.5,28.5C 49.4849,24.3656 49.8182,20.0323 49.5,15.5C 51.8333,15.5 54.1667,15.5 56.5,15.5C 56.5,27.1667 56.5,38.8333 56.5,50.5C 53.8333,50.5 51.1667,50.5 48.5,50.5C 48.5,45.8333 48.5,41.1667 48.5,36.5C 43.5,36.5 38.5,36.5 33.5,36.5C 33.5,41.1667 33.5,45.8333 33.5,50.5C 30.8333,50.5 28.1667,50.5 25.5,50.5C 25.5,38.8333 25.5,27.1667 25.5,15.5C 27.8333,15.5 30.1667,15.5 32.5,15.5C 32.1818,20.0323 32.5151,24.3656 33.5,28.5 Z"/></g>
<g><path style="opacity:1" fill="#123255" d="M 129.5,15.5 C 133.272,15.8838 136.272,17.5505 138.5,20.5C 138.662,22.5273 138.495,24.5273 138,26.5C 136.562,27.9003 135.729,29.567 135.5,31.5C 142.583,36.3446 143.25,42.0113 137.5,48.5C 135.55,49.3721 133.55,50.0388 131.5,50.5C 124.167,50.5 116.833,50.5 109.5,50.5C 109.5,38.8333 109.5,27.1667 109.5,15.5C 116.167,15.5 122.833,15.5 129.5,15.5 Z"/></g>
<g><path style="opacity:1" fill="#edf7f8" d="M 127.5,22.5 C 130.267,23.6383 130.934,25.4717 129.5,28C 125.637,29.3537 121.637,29.8537 117.5,29.5C 117.5,27.1667 117.5,24.8333 117.5,22.5C 120.833,22.5 124.167,22.5 127.5,22.5 Z"/></g>
<g><path style="opacity:1" fill="#738ca0" d="M 127.5,22.5 C 124.167,22.5 120.833,22.5 117.5,22.5C 117.5,24.8333 117.5,27.1667 117.5,29.5C 116.527,27.0521 116.194,24.3854 116.5,21.5C 120.371,21.185 124.038,21.5184 127.5,22.5 Z"/></g>
<g><path style="opacity:1" fill="#4c5e74" d="M 138.5,20.5 C 140.345,24.8842 139.345,28.5509 135.5,31.5C 135.729,29.567 136.562,27.9003 138,26.5C 138.495,24.5273 138.662,22.5273 138.5,20.5 Z"/></g>
<g><path style="opacity:1" fill="#576a7c" d="M 148.5,15.5 C 151.287,14.5233 154.287,14.19 157.5,14.5C 157.5,26.8333 157.5,39.1667 157.5,51.5C 154.287,51.81 151.287,51.4767 148.5,50.5C 151.167,50.5 153.833,50.5 156.5,50.5C 156.5,38.8333 156.5,27.1667 156.5,15.5C 153.833,15.5 151.167,15.5 148.5,15.5 Z"/></g>
<g><path style="opacity:1" fill="#0e2f53" d="M 163.5,15.5 C 173.5,15.5 183.5,15.5 193.5,15.5C 193.5,17.5 193.5,19.5 193.5,21.5C 189.958,21.1872 186.625,21.5206 183.5,22.5C 182.506,31.6517 182.173,40.985 182.5,50.5C 179.833,50.5 177.167,50.5 174.5,50.5C 174.5,41.1667 174.5,31.8333 174.5,22.5C 170.833,22.5 167.167,22.5 163.5,22.5C 163.5,20.1667 163.5,17.8333 163.5,15.5 Z"/></g>
<g><path style="opacity:1" fill="#dee8ed" d="M 82.5,24.5 C 84.9308,28.1108 86.5975,32.1108 87.5,36.5C 84.5,36.5 81.5,36.5 78.5,36.5C 79.2596,32.3128 80.593,28.3128 82.5,24.5 Z"/></g>
<g><path style="opacity:1" fill="#6c8191" d="M 183.5,22.5 C 183.5,32.1667 183.5,41.8333 183.5,51.5C 180.287,51.81 177.287,51.4767 174.5,50.5C 177.167,50.5 179.833,50.5 182.5,50.5C 182.173,40.985 182.506,31.6517 183.5,22.5 Z"/></g>
<g><path style="opacity:1" fill="#f5fafb" d="M 117.5,36.5 C 122.179,36.3342 126.845,36.5008 131.5,37C 132.767,38.7959 132.767,40.6293 131.5,42.5C 126.88,43.4933 122.214,43.8266 117.5,43.5C 117.5,41.1667 117.5,38.8333 117.5,36.5 Z"/></g>
<g><path style="opacity:1" fill="#54697b" d="M 33.5,28.5 C 32.5151,24.3656 32.1818,20.0323 32.5,15.5C 30.1667,15.5 27.8333,15.5 25.5,15.5C 25.5,27.1667 25.5,38.8333 25.5,50.5C 28.1667,50.5 30.8333,50.5 33.5,50.5C 30.7131,51.4767 27.7131,51.81 24.5,51.5C 24.5,39.1667 24.5,26.8333 24.5,14.5C 27.5,14.5 30.5,14.5 33.5,14.5C 33.5,19.1667 33.5,23.8333 33.5,28.5 Z"/></g>
<g><path style="opacity:1" fill="#4c6275" d="M 48.5,50.5 C 51.1667,50.5 53.8333,50.5 56.5,50.5C 56.5,38.8333 56.5,27.1667 56.5,15.5C 54.1667,15.5 51.8333,15.5 49.5,15.5C 49.8182,20.0323 49.4849,24.3656 48.5,28.5C 48.5,23.8333 48.5,19.1667 48.5,14.5C 51.5,14.5 54.5,14.5 57.5,14.5C 57.5,26.8333 57.5,39.1667 57.5,51.5C 54.2869,51.81 51.2869,51.4767 48.5,50.5 Z"/></g>
<g><path style="opacity:1" fill="#103155" d="M 204.5,49.5 C 201.396,50.7752 198.396,50.7752 195.5,49.5C 200.084,37.8311 205.084,26.3311 210.5,15C 212,14.8333 213.5,14.6667 215,14.5C 216.981,14.6292 218.647,15.2958 220,16.5C 224.833,27.5 229.667,38.5 234.5,49.5C 228.103,51.9724 224.437,49.9724 223.5,43.5C 217.824,43.3339 212.157,43.5006 206.5,44C 205.536,45.7255 204.869,47.5588 204.5,49.5 Z"/></g>
<g><path style="opacity:1" fill="#d8e5ea" d="M 213.5,25.5 C 216.466,28.0727 218.466,31.406 219.5,35.5C 216.167,36.8333 212.833,36.8333 209.5,35.5C 211.036,32.2225 212.369,28.8891 213.5,25.5 Z"/></g>
<g><path style="opacity:1" fill="#0b2f51" d="M 148.5,15.5 C 151.167,15.5 153.833,15.5 156.5,15.5C 156.5,27.1667 156.5,38.8333 156.5,50.5C 153.833,50.5 151.167,50.5 148.5,50.5C 148.5,38.8333 148.5,27.1667 148.5,15.5 Z"/></g>
<g><path style="opacity:1" fill="#647383" d="M 63.5,49.5 C 65.9479,50.4731 68.6146,50.8064 71.5,50.5C 68.6447,51.8032 65.6447,51.8032 62.5,50.5C 62.6236,49.8933 62.9569,49.56 63.5,49.5 Z"/></g>
<g><path style="opacity:1" fill="#748491" d="M 102.5,49.5 C 103.043,49.56 103.376,49.8933 103.5,50.5C 100.355,51.8032 97.3553,51.8032 94.5,50.5C 97.3854,50.8064 100.052,50.4731 102.5,49.5 Z"/></g>
<g><path style="opacity:1" fill="#8e9caa" d="M 195.5,49.5 C 198.396,50.7752 201.396,50.7752 204.5,49.5C 203.306,50.7773 201.64,51.4439 199.5,51.5C 197.833,51.1667 196.167,50.8333 194.5,50.5C 194.624,49.8933 194.957,49.56 195.5,49.5 Z"/></g>
<g><path style="opacity:1" fill="#151517" d="M 108.5,59.5 C 106.833,59.5 105.167,59.5 103.5,59.5C 104.103,64.6186 103.436,69.2853 101.5,73.5C 101.5,68.8333 101.5,64.1667 101.5,59.5C 98.4904,58.2089 100.824,58.2089 108.5,59.5 Z"/></g>
<g><path style="opacity:1" fill="#78797a" d="M 108.5,59.5 C 100.824,58.2089 98.4904,58.2089 101.5,59.5C 101.5,64.1667 101.5,68.8333 101.5,73.5C 100.515,69.3656 100.182,65.0323 100.5,60.5C 98.8333,60.5 97.1667,60.5 95.5,60.5C 95.5,59.5 95.5,58.5 95.5,57.5C 100.214,57.1734 104.88,57.5067 109.5,58.5C 109.376,59.1067 109.043,59.44 108.5,59.5 Z"/></g>
<g><path style="opacity:1" fill="#565756" d="M 147.5,58.5 C 144.833,58.5 142.167,58.5 139.5,58.5C 139.5,63.1667 139.5,67.8333 139.5,72.5C 142.167,72.5 144.833,72.5 147.5,72.5C 144.713,73.4767 141.713,73.81 138.5,73.5C 138.5,68.1667 138.5,62.8333 138.5,57.5C 141.713,57.19 144.713,57.5233 147.5,58.5 Z"/></g>
<g><path style="opacity:1" fill="#2d2c2c" d="M 164.5,58.5 C 165.108,63.9443 164.442,68.9443 162.5,73.5C 161.892,68.0557 162.558,63.0557 164.5,58.5 Z"/></g>
<g><path style="opacity:1" fill="#1f1f1f" d="M 177.5,57.5 C 186.153,56.9867 189.653,60.9867 188,69.5C 182.124,75.2795 177.124,74.6129 173,67.5C 172.596,63.3083 174.096,59.975 177.5,57.5 Z"/></g>
<g><path style="opacity:1" fill="#efefee" d="M 178.5,59.5 C 184.279,59.1117 186.779,61.7783 186,67.5C 183.177,72.3954 179.843,72.7287 176,68.5C 174.927,64.9003 175.76,61.9003 178.5,59.5 Z"/></g>
<g><path style="opacity:1" fill="#8a8989" d="M 164.5,58.5 C 162.558,63.0557 161.892,68.0557 162.5,73.5C 161.512,68.3595 161.179,63.0262 161.5,57.5C 162.791,57.2627 163.791,57.596 164.5,58.5 Z"/></g>
<g><path style="opacity:1" fill="#717172" d="M 69.5,65.5 C 54.1294,64.8497 39.1294,65.5163 24.5,67.5C 23.596,66.791 23.2627,65.791 23.5,64.5C 39.0091,64.1705 54.3424,64.5038 69.5,65.5 Z"/></g>
<g><path style="opacity:1" fill="#2d2d2d" d="M 196.5,64.5 C 209.167,64.5 221.833,64.5 234.5,64.5C 234.5,65.5 234.5,66.5 234.5,67.5C 221.833,67.5 209.167,67.5 196.5,67.5C 196.5,66.5 196.5,65.5 196.5,64.5 Z"/></g>
<g><path style="opacity:1" fill="#2a2a2b" d="M 69.5,65.5 C 54.8706,67.4837 39.8706,68.1503 24.5,67.5C 39.1294,65.5163 54.1294,64.8497 69.5,65.5 Z"/></g>
<g><path style="opacity:1" fill="#1d1d1d" d="M 80.5,57.5 C 83.4822,57.1044 86.1489,57.7711 88.5,59.5C 86.3284,59.6759 83.9951,59.8425 81.5,60C 80.9781,60.5613 80.6448,61.228 80.5,62C 82.6838,64.2611 85.3505,65.7611 88.5,66.5C 90.1475,69.4538 89.4808,71.6205 86.5,73C 83.0316,74.0813 80.0316,73.4146 77.5,71C 78,70.5 78.5,70 79,69.5C 81.9149,72.1345 84.7483,72.1345 87.5,69.5C 84.9039,67.4701 82.0706,65.8034 79,64.5C 78.1668,61.829 78.6668,59.4957 80.5,57.5 Z"/></g>
<g><path style="opacity:1" fill="#1b1b1b" d="M 147.5,58.5 C 152.876,60.5851 154.376,64.2518 152,69.5C 150.871,71.1412 149.371,72.1412 147.5,72.5C 144.833,72.5 142.167,72.5 139.5,72.5C 139.5,67.8333 139.5,63.1667 139.5,58.5C 142.167,58.5 144.833,58.5 147.5,58.5 Z"/></g>
<g><path style="opacity:1" fill="#f6f7f7" d="M 146.5,60.5 C 150.254,61.8276 151.421,64.4942 150,68.5C 149.292,69.3805 148.458,70.0472 147.5,70.5C 145.5,70.5 143.5,70.5 141.5,70.5C 141.5,67.1667 141.5,63.8333 141.5,60.5C 143.167,60.5 144.833,60.5 146.5,60.5 Z"/></g>
<g><path style="opacity:1" fill="#636464" d="M 146.5,60.5 C 144.833,60.5 143.167,60.5 141.5,60.5C 141.5,63.8333 141.5,67.1667 141.5,70.5C 143.5,70.5 145.5,70.5 147.5,70.5C 145.393,71.4682 143.059,71.8016 140.5,71.5C 140.5,67.5 140.5,63.5 140.5,59.5C 142.735,59.2053 144.735,59.5386 146.5,60.5 Z"/></g>
<g><path style="opacity:1" fill="#161616" d="M 116.5,57.5 C 118.26,60.7006 119.094,64.3673 119,68.5C 121.178,72.0655 123.844,72.3988 127,69.5C 128.331,53.5 128.998,53.5 129,69.5C 126.947,73.2916 123.781,74.4582 119.5,73C 119,72.5 118.5,72 118,71.5C 116.621,66.964 116.121,62.2973 116.5,57.5 Z"/></g>
<g><path style="opacity:1" fill="#313131" d="M 23.5,79.5 C 93.8333,79.5 164.167,79.5 234.5,79.5C 234.5,80.5 234.5,81.5 234.5,82.5C 164.167,82.5 93.8333,82.5 23.5,82.5C 23.5,81.5 23.5,80.5 23.5,79.5 Z"/></g>
</svg>
