<svg xmlns="http://www.w3.org/2000/svg" xmlns:xlink="http://www.w3.org/1999/xlink" width="600" zoomAndPan="magnify" viewBox="0 0 450 209.999996" height="280" preserveAspectRatio="xMidYMid meet" version="1.0"><defs><g/><clipPath id="da5ad1f7c5"><rect x="0" width="438" y="0" height="132"/></clipPath><clipPath id="acf6671c1e"><rect x="0" width="175" y="0" height="54"/></clipPath></defs><path stroke-linecap="butt" transform="matrix(0.75, 0, 0, 0.75, 7.060898, 193.957884)" fill="none" stroke-linejoin="miter" d="M 0.00213585 1.998863 L 581.075089 1.998863 " stroke="#ffffff" stroke-width="4" stroke-opacity="1" stroke-miterlimit="4"/><path stroke-linecap="butt" transform="matrix(0.75, 0.000000000000000535, -0.000000000000000535, 0.75, 7.060898, 154.334098)" fill="none" stroke-linejoin="miter" d="M 0.00213585 2.002453 L 159.335479 2.002453 " stroke="#ffffff" stroke-width="4" stroke-opacity="1" stroke-miterlimit="4"/><path stroke-linecap="butt" transform="matrix(0.75, 0.000000000000000535, -0.000000000000000535, 0.75, 323.438656, 152.684244)" fill="none" stroke-linejoin="miter" d="M -0.00154088 1.999133 L 159.331802 1.999133 " stroke="#ffffff" stroke-width="4" stroke-opacity="1" stroke-miterlimit="4"/><g transform="matrix(1, 0, 0, 1, 6, 12)"><g clip-path="url(#da5ad1f7c5)"><g fill="#ffffff" fill-opacity="1"><g transform="translate(1.060898, 103.49596)"><g><path d="M 9.25 -77.109375 L 26.21875 -77.109375 L 26.21875 -46.59375 L 57.5 -46.59375 L 57.5 -77.109375 L 74.46875 -77.109375 L 74.46875 0 L 57.5 0 L 57.5 -30.953125 L 26.21875 -30.953125 L 26.21875 0 L 9.25 0 Z M 9.25 -77.109375 "/></g></g></g><g fill="#ffffff" fill-opacity="1"><g transform="translate(84.775987, 103.49596)"><g><path d="M 35.6875 -77.65625 L 51.328125 -77.65625 L 84.375 0 L 66.640625 0 L 59.59375 -17.296875 L 26.984375 -17.296875 L 19.9375 0 L 2.640625 0 Z M 53.53125 -32.28125 L 43.296875 -57.28125 L 33.046875 -32.28125 Z M 53.53125 -32.28125 "/></g></g></g><g fill="#ffffff" fill-opacity="1"><g transform="translate(171.795603, 103.49596)"><g><path d="M 9.25 -77.109375 L 45.046875 -77.109375 C 53.941406 -77.109375 60.664062 -74.832031 65.21875 -70.28125 C 68.738281 -66.757812 70.5 -62.390625 70.5 -57.171875 L 70.5 -56.953125 C 70.5 -54.742188 70.222656 -52.796875 69.671875 -51.109375 C 69.117188 -49.421875 68.382812 -47.894531 67.46875 -46.53125 C 66.550781 -45.175781 65.484375 -43.984375 64.265625 -42.953125 C 63.054688 -41.929688 61.753906 -41.050781 60.359375 -40.3125 C 64.835938 -38.625 68.363281 -36.328125 70.9375 -33.421875 C 73.507812 -30.523438 74.796875 -26.507812 74.796875 -21.375 L 74.796875 -21.15625 C 74.796875 -17.625 74.113281 -14.535156 72.75 -11.890625 C 71.394531 -9.253906 69.453125 -7.050781 66.921875 -5.28125 C 64.390625 -3.519531 61.34375 -2.195312 57.78125 -1.3125 C 54.21875 -0.4375 50.269531 0 45.9375 0 L 9.25 0 Z M 53.640625 -54.3125 C 53.640625 -56.875 52.6875 -58.832031 50.78125 -60.1875 C 48.875 -61.550781 46.117188 -62.234375 42.515625 -62.234375 L 25.78125 -62.234375 L 25.78125 -45.9375 L 41.421875 -45.9375 C 45.160156 -45.9375 48.128906 -46.578125 50.328125 -47.859375 C 52.535156 -49.148438 53.640625 -51.226562 53.640625 -54.09375 Z M 57.9375 -23.46875 C 57.9375 -26.03125 56.945312 -28.0625 54.96875 -29.5625 C 52.988281 -31.070312 49.796875 -31.828125 45.390625 -31.828125 L 25.78125 -31.828125 L 25.78125 -14.875 L 45.9375 -14.875 C 49.675781 -14.875 52.609375 -15.550781 54.734375 -16.90625 C 56.867188 -18.269531 57.9375 -20.382812 57.9375 -23.25 Z M 57.9375 -23.46875 "/></g></g></g><g fill="#ffffff" fill-opacity="1"><g transform="translate(251.324922, 103.49596)"><g><path d="M 10.03125 -77.109375 L 26.984375 -77.109375 L 26.984375 0 L 10.03125 0 Z M 10.03125 -77.109375 "/></g></g></g><g fill="#ffffff" fill-opacity="1"><g transform="translate(288.335792, 103.49596)"><g><path d="M 27.203125 -61.46875 L 3.75 -61.46875 L 3.75 -77.109375 L 67.640625 -77.109375 L 67.640625 -61.46875 L 44.171875 -61.46875 L 44.171875 0 L 27.203125 0 Z M 27.203125 -61.46875 "/></g></g></g><g fill="#ffffff" fill-opacity="1"><g transform="translate(349.799394, 103.49596)"><g><path d="M 35.6875 -77.65625 L 51.328125 -77.65625 L 84.375 0 L 66.640625 0 L 59.59375 -17.296875 L 26.984375 -17.296875 L 19.9375 0 L 2.640625 0 Z M 53.53125 -32.28125 L 43.296875 -57.28125 L 33.046875 -32.28125 Z M 53.53125 -32.28125 "/></g></g></g></g></g><g transform="matrix(1, 0, 0, 1, 138, 128)"><g clip-path="url(#acf6671c1e)"><g fill="#ffffff" fill-opacity="1"><g transform="translate(0.0369834, 41.857805)"><g><path d="M 14.90625 0.4375 C 12.445312 0.4375 10.195312 0.0351562 8.15625 -0.765625 C 6.125 -1.578125 4.179688 -2.816406 2.328125 -4.484375 L 4.484375 -7.03125 C 6.097656 -5.570312 7.722656 -4.484375 9.359375 -3.765625 C 11.003906 -3.046875 12.898438 -2.6875 15.046875 -2.6875 C 17.128906 -2.6875 18.789062 -3.175781 20.03125 -4.15625 C 21.28125 -5.132812 21.90625 -6.390625 21.90625 -7.921875 L 21.90625 -8 C 21.90625 -8.707031 21.785156 -9.347656 21.546875 -9.921875 C 21.316406 -10.492188 20.90625 -11.015625 20.3125 -11.484375 C 19.726562 -11.953125 18.914062 -12.375 17.875 -12.75 C 16.832031 -13.132812 15.507812 -13.503906 13.90625 -13.859375 C 12.144531 -14.234375 10.609375 -14.671875 9.296875 -15.171875 C 7.992188 -15.671875 6.914062 -16.269531 6.0625 -16.96875 C 5.21875 -17.675781 4.585938 -18.5 4.171875 -19.4375 C 3.765625 -20.375 3.5625 -21.472656 3.5625 -22.734375 L 3.5625 -22.828125 C 3.5625 -24.023438 3.8125 -25.132812 4.3125 -26.15625 C 4.8125 -27.1875 5.515625 -28.078125 6.421875 -28.828125 C 7.328125 -29.578125 8.394531 -30.164062 9.625 -30.59375 C 10.863281 -31.019531 12.210938 -31.234375 13.671875 -31.234375 C 15.929688 -31.234375 17.90625 -30.914062 19.59375 -30.28125 C 21.28125 -29.65625 22.914062 -28.710938 24.5 -27.453125 L 22.46875 -24.765625 C 21.039062 -25.929688 19.597656 -26.78125 18.140625 -27.3125 C 16.691406 -27.84375 15.175781 -28.109375 13.59375 -28.109375 C 11.570312 -28.109375 9.972656 -27.628906 8.796875 -26.671875 C 7.617188 -25.722656 7.03125 -24.546875 7.03125 -23.140625 L 7.03125 -23.046875 C 7.03125 -22.316406 7.144531 -21.664062 7.375 -21.09375 C 7.613281 -20.519531 8.039062 -19.988281 8.65625 -19.5 C 9.28125 -19.019531 10.132812 -18.582031 11.21875 -18.1875 C 12.300781 -17.789062 13.691406 -17.414062 15.390625 -17.0625 C 18.828125 -16.300781 21.359375 -15.242188 22.984375 -13.890625 C 24.609375 -12.546875 25.421875 -10.703125 25.421875 -8.359375 L 25.421875 -8.265625 C 25.421875 -6.953125 25.15625 -5.757812 24.625 -4.6875 C 24.101562 -3.613281 23.378906 -2.695312 22.453125 -1.9375 C 21.523438 -1.175781 20.414062 -0.585938 19.125 -0.171875 C 17.84375 0.234375 16.4375 0.4375 14.90625 0.4375 Z M 14.90625 0.4375 "/></g></g></g><g fill="#ffffff" fill-opacity="1"><g transform="translate(27.699452, 41.857805)"><g><path d="M 12.359375 -27.578125 L 1.984375 -27.578125 L 1.984375 -30.796875 L 26.21875 -30.796875 L 26.21875 -27.578125 L 15.828125 -27.578125 L 15.828125 0 L 12.359375 0 Z M 12.359375 -27.578125 "/></g></g></g><g fill="#ffffff" fill-opacity="1"><g transform="translate(55.889734, 41.857805)"><g><path d="M 16.671875 0.484375 C 14.765625 0.484375 13.023438 0.195312 11.453125 -0.375 C 9.890625 -0.945312 8.539062 -1.796875 7.40625 -2.921875 C 6.28125 -4.054688 5.410156 -5.457031 4.796875 -7.125 C 4.179688 -8.789062 3.875 -10.710938 3.875 -12.890625 L 3.875 -30.796875 L 7.34375 -30.796875 L 7.34375 -13.109375 C 7.34375 -9.765625 8.171875 -7.195312 9.828125 -5.40625 C 11.484375 -3.625 13.796875 -2.734375 16.765625 -2.734375 C 19.609375 -2.734375 21.863281 -3.582031 23.53125 -5.28125 C 25.195312 -6.976562 26.03125 -9.515625 26.03125 -12.890625 L 26.03125 -30.796875 L 29.515625 -30.796875 L 29.515625 -13.15625 C 29.515625 -10.894531 29.207031 -8.910156 28.59375 -7.203125 C 27.976562 -5.503906 27.101562 -4.082031 25.96875 -2.9375 C 24.84375 -1.800781 23.492188 -0.945312 21.921875 -0.375 C 20.359375 0.195312 18.609375 0.484375 16.671875 0.484375 Z M 16.671875 0.484375 "/></g></g></g><g fill="#ffffff" fill-opacity="1"><g transform="translate(89.269498, 41.857805)"><g><path d="M 4.359375 -30.796875 L 15.046875 -30.796875 C 17.453125 -30.796875 19.65625 -30.40625 21.65625 -29.625 C 23.664062 -28.84375 25.394531 -27.765625 26.84375 -26.390625 C 28.300781 -25.015625 29.425781 -23.394531 30.21875 -21.53125 C 31.007812 -19.664062 31.40625 -17.648438 31.40625 -15.484375 L 31.40625 -15.390625 C 31.40625 -13.222656 31.007812 -11.203125 30.21875 -9.328125 C 29.425781 -7.453125 28.300781 -5.820312 26.84375 -4.4375 C 25.394531 -3.0625 23.664062 -1.976562 21.65625 -1.1875 C 19.65625 -0.394531 17.453125 0 15.046875 0 L 4.359375 0 Z M 7.828125 -27.578125 L 7.828125 -3.203125 L 15.046875 -3.203125 C 16.984375 -3.203125 18.742188 -3.507812 20.328125 -4.125 C 21.910156 -4.75 23.25 -5.601562 24.34375 -6.6875 C 25.445312 -7.769531 26.296875 -9.050781 26.890625 -10.53125 C 27.492188 -12.007812 27.796875 -13.601562 27.796875 -15.3125 L 27.796875 -15.390625 C 27.796875 -17.097656 27.492188 -18.691406 26.890625 -20.171875 C 26.296875 -21.648438 25.445312 -22.9375 24.34375 -24.03125 C 23.25 -25.132812 21.910156 -26 20.328125 -26.625 C 18.742188 -27.257812 16.984375 -27.578125 15.046875 -27.578125 Z M 7.828125 -27.578125 "/></g></g></g><g fill="#ffffff" fill-opacity="1"><g transform="translate(123.660757, 41.857805)"><g><path d="M 4.65625 -30.796875 L 8.140625 -30.796875 L 8.140625 0 L 4.65625 0 Z M 4.65625 -30.796875 "/></g></g></g><g fill="#ffffff" fill-opacity="1"><g transform="translate(136.458533, 41.857805)"><g><path d="M 18.65625 0.53125 C 16.300781 0.53125 14.164062 0.109375 12.25 -0.734375 C 10.332031 -1.585938 8.679688 -2.738281 7.296875 -4.1875 C 5.921875 -5.644531 4.859375 -7.332031 4.109375 -9.25 C 3.359375 -11.175781 2.984375 -13.195312 2.984375 -15.3125 L 2.984375 -15.390625 C 2.984375 -17.503906 3.363281 -19.53125 4.125 -21.46875 C 4.894531 -23.40625 5.96875 -25.097656 7.34375 -26.546875 C 8.71875 -27.992188 10.375 -29.148438 12.3125 -30.015625 C 14.25 -30.878906 16.390625 -31.3125 18.734375 -31.3125 C 21.078125 -31.3125 23.207031 -30.882812 25.125 -30.03125 C 27.050781 -29.1875 28.703125 -28.035156 30.078125 -26.578125 C 31.460938 -25.128906 32.523438 -23.445312 33.265625 -21.53125 C 34.015625 -19.613281 34.390625 -17.597656 34.390625 -15.484375 L 34.390625 -15.390625 C 34.390625 -13.285156 34.007812 -11.265625 33.25 -9.328125 C 32.488281 -7.390625 31.414062 -5.691406 30.03125 -4.234375 C 28.65625 -2.785156 27 -1.628906 25.0625 -0.765625 C 23.132812 0.0976562 21 0.53125 18.65625 0.53125 Z M 18.734375 -2.6875 C 20.492188 -2.6875 22.113281 -3.015625 23.59375 -3.671875 C 25.070312 -4.328125 26.335938 -5.226562 27.390625 -6.375 C 28.453125 -7.519531 29.285156 -8.851562 29.890625 -10.375 C 30.492188 -11.90625 30.796875 -13.550781 30.796875 -15.3125 L 30.796875 -15.390625 C 30.796875 -17.148438 30.492188 -18.800781 29.890625 -20.34375 C 29.285156 -21.882812 28.441406 -23.222656 27.359375 -24.359375 C 26.273438 -25.503906 24.988281 -26.414062 23.5 -27.09375 C 22.019531 -27.769531 20.40625 -28.109375 18.65625 -28.109375 C 16.894531 -28.109375 15.269531 -27.773438 13.78125 -27.109375 C 12.300781 -26.453125 11.035156 -25.550781 9.984375 -24.40625 C 8.929688 -23.269531 8.101562 -21.9375 7.5 -20.40625 C 6.894531 -18.882812 6.59375 -17.242188 6.59375 -15.484375 L 6.59375 -15.390625 C 6.59375 -13.628906 6.894531 -11.976562 7.5 -10.4375 C 8.101562 -8.90625 8.945312 -7.566406 10.03125 -6.421875 C 11.113281 -5.273438 12.394531 -4.363281 13.875 -3.6875 C 15.351562 -3.019531 16.972656 -2.6875 18.734375 -2.6875 Z M 18.734375 -2.6875 "/></g></g></g></g></g></svg>